<svg xmlns="http://www.w3.org/2000/svg" height="63.39" width="60.796">
    <path 
        d="M60.3 14.015c-.948 2.943-3.342 5.287-6.184 7.431-2.943 2.244-8.828 3.84-12.319 3.89h-7.334V11.321H41.5a7 7 0 0 1 6.977 6.979v.3a8.249 8.249 0 0 1-.549 2.494 16.357 16.357 0 0 0 8.279-5.436c1.8-2.494 2.544-6.434.449-8.977a18.274 18.274 0 0 0-5.186-4.187A19.991 19.991 0 0 0 41.645 0H0l15.162 6.583L18 7.83l4.289 1.9v35.356a19.534 19.534 0 0 1 7.232-7.83 11.82 11.82 0 0 1 5.785-1.546c1.746-.05 3.441 0 5.187 0h1.047a19.929 19.929 0 0 0 13.266-4.888A17 17 0 0 0 60.8 18.054v-.2a19.749 19.749 0 0 0-.5-3.84m-38.056 39.85v9.526l9.725-22.343.948-2.095c-4.987 1.5-9.177 7.331-10.673 14.912" 
        fill="#ebebeb"
    >

    </path>
</svg>