<svg xmlns="http://www.w3.org/2000/svg" viewBox="0 0 369.903 102.861" data-v-2a65e2f2="">
    <g fill="#121212">
        <path d="M123.891 21.936h-13.153L98.909 54.961h12.676l1.041-4.164h8.99l1.041 4.164h12.775Zm-9.274 21.008 1.041-3.691a39.927 39.927 0 0 0 1.041-4.353 15.187 15.187 0 0 0 .284-2.839h.284c.095.946.189 1.987.284 2.839a43.842 43.842 0 0 0 1.041 4.353l1.042 3.691ZM149.094 44.268V21.936h-11.829v33.025h23.373V44.268ZM187.358 21.936h-13.153L163.228 52.88l-.757 2.082h12.68l1.041-4.164h8.99l1.041 4.164h12.775Zm-9.274 21.008 1.041-3.691a39.935 39.935 0 0 0 1.041-4.353 15.189 15.189 0 0 0 .284-2.839h.284a26.2 26.2 0 0 0 .284 2.839c.189.946.473 2.46.946 4.353l1.041 3.691ZM229.958 29.979a16.807 16.807 0 0 0-6.624-5.962 13.568 13.568 0 0 0-5.3-1.514c-1.23-.189-2.46-.284-3.691-.379s-2.555-.095-4.164-.095h-9.652v33.026h8.706a64.779 64.779 0 0 0 8.611-.473 20.066 20.066 0 0 0 5.3-1.514 18.2 18.2 0 0 0 6.624-5.962 15.443 15.443 0 0 0 2.271-8.422 14.389 14.389 0 0 0-2.082-8.706m-11.64 13.343a9.294 9.294 0 0 1-5.867 1.514v-12.68h.473a7.717 7.717 0 0 1 5.394 1.514 6.476 6.476 0 0 1 1.8 4.731 5.588 5.588 0 0 1-1.8 4.921M237.465 21.936h12.018v33.025h-12.018zM274.021 21.936v17.979a8.21 8.21 0 0 1-.852 4.258 2.673 2.673 0 0 1-2.46 1.23 2.826 2.826 0 0 1-2.555-1.23 8.5 8.5 0 0 1-.757-4.258V21.936h-11.923v17.885a30.675 30.675 0 0 0 .473 5.867 13.02 13.02 0 0 0 1.419 3.785 13.1 13.1 0 0 0 5.394 4.731 19.711 19.711 0 0 0 15.708 0 13.019 13.019 0 0 0 5.394-4.731 9.22 9.22 0 0 0 1.419-3.785 29.6 29.6 0 0 0 .379-5.772v-17.98ZM328.585 21.936h-12.207l-2.46 8.043c-.662 2.176-1.136 3.974-1.419 5.3-.284 1.419-.662 3.028-.852 4.448h-.284a42.731 42.731 0 0 0-1.893-8.517 5.958 5.958 0 0 1-.284-1.136l-2.366-8.138h-12.206l-5.678 33.025h11.639l1.424-13.058c.095-1.419.284-2.366.284-3.028a27.025 27.025 0 0 1 .284-3.028c.095.662.284 1.7.568 3.028l.852 3.407 3.785 12.68h7l3.785-12.68a29.359 29.359 0 0 0 .852-3.407 28.655 28.655 0 0 0 .568-3.028 22.316 22.316 0 0 0 .284 3.028c.095.473.095.946.189 1.514a8.282 8.282 0 0 0 .189 1.514l1.419 13.059h11.641ZM98.035 22.711C96.521 27.537 92.641 31.322 88 34.823c-4.826 3.6-14.289 6.245-19.967 6.34H56.115v-22.71h11.45A11.389 11.389 0 0 1 78.92 29.808v.473a12.153 12.153 0 0 1-.946 4.069c5.11-1.609 10.22-4.448 13.343-8.9 2.933-4.069 4.164-10.409.662-14.573A31.987 31.987 0 0 0 67.565 0H0l24.6 10.693 4.64 1.987 7 3.028v57.25c2.744-5.11 6.624-9.841 11.734-12.68a20.436 20.436 0 0 1 9.368-2.555c2.839-.095 5.583 0 8.422 0h1.7a31.959 31.959 0 0 0 21.481-7.949A27.715 27.715 0 0 0 98.7 29.051v-.284a22.831 22.831 0 0 0-.662-6.056m-61.7 64.726v15.424l15.8-36.243 1.514-3.312C45.611 65.578 38.7 75.04 36.337 87.437M369.903 24.036 344.732 52.33h-7.665l-.662-3.217h6.813l19.4-21.765-29.619-.095-.474-3.217Z">
        </path>
        <path d="M19.304 34.351v-3.5H3.312v15.991h15.992v-3.5h8.422l-.662 3.312h-4.542v3.407H.095V27.632h22.427v3.407h7.76l-.662 3.312Z">
        </path>
    </g>
</svg>